<svg xmlns="http://www.w3.org/2000/svg" viewBox="0 0 24 24" id="Content-Files-Open-Book--Streamline-Pixel" height="24" width="24">
  <desc>
    Content Files Open Book Streamline Icon: https://streamlinehq.com
  </desc>
  <title>content-files-open-book</title>
  <g>
    <path d="M21.7125 6.285h1.1475v13.7175h-1.1475Z" fill="#000000" stroke-width="0.75"></path>
    <path d="M19.4325 20.0025h2.2800000000000002v1.1400000000000001h-2.2800000000000002Z" fill="#000000" stroke-width="0.75"></path>
    <path d="M17.145 18.855h2.2874999999999996v1.1475h-2.2874999999999996Z" fill="#000000" stroke-width="0.75"></path>
    <path d="M13.7175 17.715h3.4275v1.1400000000000001h-3.4275Z" fill="#000000" stroke-width="0.75"></path>
    <path d="M14.857499999999998 12h3.4275v1.1400000000000001h-3.4275Z" fill="#000000" stroke-width="0.75"></path>
    <path d="M14.857499999999998 8.5725h3.4275v1.1400000000000001h-3.4275Z" fill="#000000" stroke-width="0.75"></path>
    <path d="M14.857499999999998 5.1450000000000005h3.4275v1.1400000000000001h-3.4275Z" fill="#000000" stroke-width="0.75"></path>
    <path d="M13.7175 2.8575h5.715v1.1400000000000001h-5.715Z" fill="#000000" stroke-width="0.75"></path>
    <path d="M13.7175 9.712499999999999h1.1400000000000001v1.1475h-1.1400000000000001Z" fill="#000000" stroke-width="0.75"></path>
    <path d="M13.7175 6.285h1.1400000000000001v1.1475h-1.1400000000000001Z" fill="#000000" stroke-width="0.75"></path>
    <path d="M12.57 3.9975h1.1475v1.1475h-1.1475Z" fill="#000000" stroke-width="0.75"></path>
    <path d="M10.290000000000001 18.855h3.4275v1.1475h-3.4275Z" fill="#000000" stroke-width="0.75"></path>
    <path d="M10.290000000000001 3.9975h1.1400000000000001v1.1475h-1.1400000000000001Z" fill="#000000" stroke-width="0.75"></path>
    <path d="M6.855 17.715h3.435v1.1400000000000001H6.855Z" fill="#000000" stroke-width="0.75"></path>
    <path d="M9.1425 9.712499999999999h1.1475v1.1475h-1.1475Z" fill="#000000" stroke-width="0.75"></path>
    <path d="M9.1425 6.285h1.1475v1.1475h-1.1475Z" fill="#000000" stroke-width="0.75"></path>
    <path d="M5.715 12h3.4275v1.1400000000000001H5.715Z" fill="#000000" stroke-width="0.75"></path>
    <path d="M5.715 8.5725h3.4275v1.1400000000000001H5.715Z" fill="#000000" stroke-width="0.75"></path>
    <path d="M5.715 5.1450000000000005h3.4275v1.1400000000000001H5.715Z" fill="#000000" stroke-width="0.75"></path>
    <path d="M4.574999999999999 2.8575h5.715v1.1400000000000001H4.574999999999999Z" fill="#000000" stroke-width="0.75"></path>
    <path d="M4.574999999999999 18.855h2.2800000000000002v1.1475H4.574999999999999Z" fill="#000000" stroke-width="0.75"></path>
    <path d="m10.290000000000001 15.4275 0 -1.1400000000000001 -3.435 0 0 1.1400000000000001 -2.2800000000000002 0 0 -11.43 -1.1475 0 0 1.1475 -1.1400000000000001 0 0 1.1400000000000001 1.1400000000000001 0 0 11.43 3.4275 0 0 -1.1400000000000001 3.435 0 0 1.1400000000000001 3.4275 0 0 -1.1400000000000001 3.4275 0 0 1.1400000000000001 3.4275 0 0 -11.43 1.1400000000000001 0 0 -1.1400000000000001 -1.1400000000000001 0 0 -1.1475 -1.1400000000000001 0 0 11.43 -2.2874999999999996 0 0 -1.1400000000000001 -3.4275 0 0 1.1400000000000001 -1.1475 0 0 -10.2825 -1.1400000000000001 0 0 10.2825 -1.1400000000000001 0z" fill="#000000" stroke-width="0.75"></path>
    <path d="M2.2874999999999996 20.0025H4.574999999999999v1.1400000000000001H2.2874999999999996Z" fill="#000000" stroke-width="0.75"></path>
    <path d="M1.1400000000000001 6.285h1.1475v13.7175H1.1400000000000001Z" fill="#000000" stroke-width="0.75"></path>
  </g>
</svg>