<svg xmlns="http://www.w3.org/2000/svg" viewBox="0 0 24 24" id="Computer-Old-Electronics--Streamline-Pixel" height="24" width="24">
  <desc>
    Computer Old Electronics Streamline Icon: https://streamlinehq.com
  </desc>
  <title>computer-old-electronics</title>
  <g>
    <path d="M22.856250000000003 17.145h-3.4275v-1.1475h1.1400000000000001v-1.1400000000000001H3.4312500000000004v1.1400000000000001H4.574999999999999v1.1475H1.1437499999999998V24h21.7125Zm-17.145 -1.1475h12.57v1.1475H5.71125Zm16.005 6.862500000000001H2.28375v-4.574999999999999h19.4325Z" fill="#000000" stroke-width="0.75"></path>
    <path d="M20.56875 1.1400000000000001h1.1475v13.7175h-1.1475Z" fill="#000000" stroke-width="0.75"></path>
    <path d="M13.713750000000001 19.424999999999997h5.715v1.1475h-5.715Z" fill="#000000" stroke-width="0.75"></path>
    <path d="M13.713750000000001 8.0025h1.1400000000000001v1.1400000000000001h-1.1400000000000001Z" fill="#000000" stroke-width="0.75"></path>
    <path d="M13.713750000000001 5.715h1.1400000000000001v1.1400000000000001h-1.1400000000000001Z" fill="#000000" stroke-width="0.75"></path>
    <path d="M10.286249999999999 9.1425h3.4275v1.1400000000000001h-3.4275Z" fill="#000000" stroke-width="0.75"></path>
    <path d="M9.13875 8.0025h1.1475v1.1400000000000001h-1.1475Z" fill="#000000" stroke-width="0.75"></path>
    <path d="M9.13875 5.715h1.1475v1.1400000000000001h-1.1475Z" fill="#000000" stroke-width="0.75"></path>
    <path d="M4.574999999999999 13.7175h14.857499999999998V2.2874999999999996H4.574999999999999ZM5.71125 3.4275h12.57v9.1425H5.71125Z" fill="#000000" stroke-width="0.75"></path>
    <path d="M4.57125 19.424999999999997h2.2874999999999996v2.2874999999999996h-2.2874999999999996Z" fill="#000000" stroke-width="0.75"></path>
    <path d="M3.4312500000000004 0h17.137500000000003v1.1400000000000001H3.4312500000000004Z" fill="#000000" stroke-width="0.75"></path>
    <path d="M2.28375 1.1400000000000001h1.1475v13.7175h-1.1475Z" fill="#000000" stroke-width="0.75"></path>
  </g>
</svg>