<svg xmlns="http://www.w3.org/2000/svg" viewBox="0 0 24 24" id="Computers-Devices-Electronics-Vintage-Mac--Streamline-Pixel" height="24" width="24">
  <desc>
    Computers Devices Electronics Vintage Mac Streamline Icon: https://streamlinehq.com
  </desc>
  <title>computers-devices-electronics-vintage-mac</title>
  <g>
    <path d="M20.572499999999998 2.2874999999999996h1.1400000000000001v18.285h-1.1400000000000001Z" fill="#000000" stroke-width="0.75"></path>
    <path d="M19.424999999999997 1.1400000000000001h1.1475v1.1475H19.424999999999997Z" fill="#000000" stroke-width="0.75"></path>
    <path d="m3.4275 20.572499999999998 0 1.1400000000000001 1.1400000000000001 0 0 1.1475 1.1475 0 0 -1.1475 12.57 0 0 1.1475 1.1400000000000001 0 0 -1.1475 1.1475 0 0 -1.1400000000000001 -17.145 0z" fill="#000000" stroke-width="0.75"></path>
    <path d="M18.285 3.4275h1.1400000000000001v10.290000000000001h-1.1400000000000001Z" fill="#000000" stroke-width="0.75"></path>
    <path d="M5.715 22.86h12.57V24H5.715Z" fill="#000000" stroke-width="0.75"></path>
    <path d="M13.71 17.145h4.574999999999999v1.1400000000000001h-4.574999999999999Z" fill="#000000" stroke-width="0.75"></path>
    <path d="M5.715 13.7175h12.57v1.1400000000000001H5.715Z" fill="#000000" stroke-width="0.75"></path>
    <path d="M12.57 11.43h3.4275v-1.1475h1.1400000000000001V6.855h-1.1400000000000001V5.715h-3.4275v1.1400000000000001h-1.1400000000000001v1.1475h1.1400000000000001v1.1400000000000001h-1.1400000000000001v1.1400000000000001h1.1400000000000001Zm1.1400000000000001 -4.574999999999999h1.1475v1.1475h-1.1475Z" fill="#000000" stroke-width="0.75"></path>
    <path d="M9.1425 8.0025h1.1400000000000001v1.1400000000000001h-1.1400000000000001Z" fill="#000000" stroke-width="0.75"></path>
    <path d="M6.855 8.0025h1.1400000000000001v1.1400000000000001H6.855Z" fill="#000000" stroke-width="0.75"></path>
    <path d="M5.715 2.2874999999999996h12.57v1.1400000000000001H5.715Z" fill="#000000" stroke-width="0.75"></path>
    <path d="M5.715 17.145h1.1400000000000001v1.1400000000000001H5.715Z" fill="#000000" stroke-width="0.75"></path>
    <path d="M4.5675 0H19.424999999999997v1.1400000000000001H4.5675Z" fill="#000000" stroke-width="0.75"></path>
    <path d="M4.5675 3.4275h1.1475v10.290000000000001H4.5675Z" fill="#000000" stroke-width="0.75"></path>
    <path d="M3.4275 1.1400000000000001h1.1400000000000001v1.1475H3.4275Z" fill="#000000" stroke-width="0.75"></path>
    <path d="M2.2874999999999996 2.2874999999999996h1.1400000000000001v18.285H2.2874999999999996Z" fill="#000000" stroke-width="0.75"></path>
  </g>
</svg>