<svg xmlns="http://www.w3.org/2000/svg" viewBox="0 0 24 24" id="Food-Drink-Sushi--Streamline-Pixel" height="24" width="24">
  <desc>
    Food Drink Sushi Streamline Icon: https://streamlinehq.com
  </desc>
  <title>food-drink-sushi</title>
  <g>
    <path d="m20.56875 12.57 0 1.1475 1.1400000000000001 0 0 4.5675 1.1475 0 0 -9.1425 -1.1475 0 0 3.4275 -1.1400000000000001 0z" fill="#000000" stroke-width="0.75"></path>
    <path d="M20.56875 18.285h1.1400000000000001v1.1475h-1.1400000000000001Z" fill="#000000" stroke-width="0.75"></path>
    <path d="M20.56875 8.0025h1.1400000000000001v1.1400000000000001h-1.1400000000000001Z" fill="#000000" stroke-width="0.75"></path>
    <path d="M2.28375 22.86h1.1400000000000001V24h8.0025v-1.1400000000000001h1.1400000000000001v-1.1475h1.1475v-1.1400000000000001h6.855v-1.1400000000000001h-6.855v-4.574999999999999h6.855v-1.1400000000000001h-8.0025v3.4275h-1.1400000000000001v1.1400000000000001H3.42375v-1.1400000000000001h-1.1400000000000001v-3.4275h-1.1400000000000001v7.995h1.1400000000000001Zm5.715 -1.1475h2.2874999999999996v-2.2800000000000002h1.1400000000000001v2.2800000000000002h-1.1400000000000001v1.1475h-2.2874999999999996Z" fill="#000000" stroke-width="0.75"></path>
    <path d="m16.00125 11.43 -2.2874999999999996 0 0 1.1400000000000001 5.715 0 0 -1.1400000000000001 1.1400000000000001 0 0 -1.1475 -1.1400000000000001 0 0 -1.1400000000000001 -5.715 0 0 1.1400000000000001 2.2874999999999996 0 0 1.1475z" fill="#000000" stroke-width="0.75"></path>
    <path d="M12.56625 10.2825h1.1475v1.1475h-1.1475Z" fill="#000000" stroke-width="0.75"></path>
    <path d="m12.56625 5.715 -1.1400000000000001 0 0 1.1400000000000001 -8.0025 0 0 1.1475 8.0025 0 0 1.1400000000000001 1.1400000000000001 0 0 -1.1400000000000001 8.0025 0 0 -1.1475 -6.855 0 0 -4.5675 -1.1475 0 0 3.4275z" fill="#000000" stroke-width="0.75"></path>
    <path d="M11.42625 12.57h1.1400000000000001v1.1475h-1.1400000000000001Z" fill="#000000" stroke-width="0.75"></path>
    <path d="M11.42625 1.1400000000000001h1.1400000000000001v1.1475h-1.1400000000000001Z" fill="#000000" stroke-width="0.75"></path>
    <path d="M10.286249999999999 14.857499999999998h1.1400000000000001v1.1400000000000001h-1.1400000000000001Z" fill="#000000" stroke-width="0.75"></path>
    <path d="M10.286249999999999 3.4275h1.1400000000000001V4.574999999999999h-1.1400000000000001Z" fill="#000000" stroke-width="0.75"></path>
    <path d="m6.85125 15.997499999999999 -2.2800000000000002 0 0 1.1475 5.715 0 0 -1.1475 -2.2874999999999996 0 0 -1.1400000000000001 2.2874999999999996 0 0 -1.1400000000000001 -5.715 0 0 1.1400000000000001 2.2800000000000002 0 0 1.1400000000000001z" fill="#000000" stroke-width="0.75"></path>
    <path d="m6.85125 4.574999999999999 -2.2800000000000002 0 0 1.1400000000000001 5.715 0 0 -1.1400000000000001 -2.2874999999999996 0 0 -1.1475 2.2874999999999996 0 0 -1.1400000000000001 -5.715 0 0 1.1400000000000001 2.2800000000000002 0 0 1.1475z" fill="#000000" stroke-width="0.75"></path>
    <path d="m11.42625 12.57 0 -3.4275 -1.1400000000000001 0 0 2.2874999999999996 -6.862500000000001 0 0 1.1400000000000001 8.0025 0z" fill="#000000" stroke-width="0.75"></path>
    <path d="M3.42375 0h8.0025v1.1400000000000001H3.42375Z" fill="#000000" stroke-width="0.75"></path>
    <path d="M3.42375 14.857499999999998h1.1475v1.1400000000000001h-1.1475Z" fill="#000000" stroke-width="0.75"></path>
    <path d="M3.42375 3.4275h1.1475V4.574999999999999h-1.1475Z" fill="#000000" stroke-width="0.75"></path>
    <path d="M2.28375 12.57h1.1400000000000001v1.1475h-1.1400000000000001Z" fill="#000000" stroke-width="0.75"></path>
    <path d="M2.28375 10.2825h1.1400000000000001v1.1475h-1.1400000000000001Z" fill="#000000" stroke-width="0.75"></path>
    <path d="M2.28375 1.1400000000000001h1.1400000000000001v1.1475h-1.1400000000000001Z" fill="#000000" stroke-width="0.75"></path>
    <path d="m2.28375 6.855 1.1400000000000001 0 0 -1.1400000000000001 -1.1400000000000001 0 0 -3.4275 -1.1400000000000001 0 0 7.995 1.1400000000000001 0 0 -3.4275z" fill="#000000" stroke-width="0.75"></path>
  </g>
</svg>