<svg xmlns="http://www.w3.org/2000/svg" viewBox="0 0 24 24" id="Interface-Essential-Question-Help-Square--Streamline-Pixel" height="24" width="24">
  <desc>
    Interface Essential Question Help Square Streamline Icon: https://streamlinehq.com
  </desc>
  <title>interface-essential-question-help-square</title>
  <g>
    <path d="M22.86 2.2874999999999996H24v19.424999999999997h-1.1400000000000001Z" fill="#000000" stroke-width="0.75"></path>
    <path d="M21.7125 21.7125h1.1475v1.1475h-1.1475Z" fill="#000000" stroke-width="0.75"></path>
    <path d="M21.7125 1.1400000000000001h1.1475v1.1475h-1.1475Z" fill="#000000" stroke-width="0.75"></path>
    <path d="M2.2874999999999996 22.86h19.424999999999997V24H2.2874999999999996Z" fill="#000000" stroke-width="0.75"></path>
    <path d="m20.572499999999998 18.285 -1.1400000000000001 0 0 1.1400000000000001 -1.1475 0 0 1.1475 1.1475 0 0 1.1400000000000001 1.1400000000000001 0 0 -1.1400000000000001 1.1400000000000001 0 0 -1.1475 -1.1400000000000001 0 0 -1.1400000000000001z" fill="#000000" stroke-width="0.75"></path>
    <path d="m20.572499999999998 2.2874999999999996 -1.1400000000000001 0 0 1.1400000000000001 -1.1475 0 0 1.1400000000000001 1.1475 0 0 1.1475 1.1400000000000001 0 0 -1.1475 1.1400000000000001 0 0 -1.1400000000000001 -1.1400000000000001 0 0 -1.1400000000000001z" fill="#000000" stroke-width="0.75"></path>
    <path d="m16.005 4.5675 -1.1475 0 0 -1.1400000000000001 -5.715 0 0 1.1400000000000001 -1.1400000000000001 0 0 1.1475 -1.1400000000000001 0 0 3.4275 2.2800000000000002 0 0 -2.2874999999999996 1.1475 0 0 -1.1400000000000001 2.2800000000000002 0 0 1.1400000000000001 1.1475 0 0 2.2874999999999996 -1.1475 0 0 1.1400000000000001 -1.1400000000000001 0 0 1.1475 -1.1400000000000001 0 0 2.2800000000000002 3.4275 0 0 -1.1400000000000001 1.1400000000000001 0 0 -1.1400000000000001 1.1475 0 0 -1.1475 1.1400000000000001 0 0 -4.5675 -1.1400000000000001 0 0 -1.1475z" fill="#000000" stroke-width="0.75"></path>
    <path d="m13.7175 14.857499999999998 -3.4275 0 0 1.1400000000000001 -1.1475 0 0 3.4275 1.1475 0 0 1.1475 3.4275 0 0 -1.1475 1.1400000000000001 0 0 -3.4275 -1.1400000000000001 0 0 -1.1400000000000001z" fill="#000000" stroke-width="0.75"></path>
    <path d="m4.574999999999999 18.285 -1.1475 0 0 1.1400000000000001 -1.1400000000000001 0 0 1.1475 1.1400000000000001 0 0 1.1400000000000001 1.1475 0 0 -1.1400000000000001 1.1400000000000001 0 0 -1.1475 -1.1400000000000001 0 0 -1.1400000000000001z" fill="#000000" stroke-width="0.75"></path>
    <path d="m4.574999999999999 2.2874999999999996 -1.1475 0 0 1.1400000000000001 -1.1400000000000001 0 0 1.1400000000000001 1.1400000000000001 0 0 1.1475 1.1475 0 0 -1.1475 1.1400000000000001 0 0 -1.1400000000000001 -1.1400000000000001 0 0 -1.1400000000000001z" fill="#000000" stroke-width="0.75"></path>
    <path d="M2.2874999999999996 0h19.424999999999997v1.1400000000000001H2.2874999999999996Z" fill="#000000" stroke-width="0.75"></path>
    <path d="M1.1475 21.7125h1.1400000000000001v1.1475H1.1475Z" fill="#000000" stroke-width="0.75"></path>
    <path d="M1.1475 1.1400000000000001h1.1400000000000001v1.1475H1.1475Z" fill="#000000" stroke-width="0.75"></path>
    <path d="M0 2.2874999999999996h1.1475v19.424999999999997H0Z" fill="#000000" stroke-width="0.75"></path>
  </g>
</svg>